<svg width="159" height="87" viewBox="0 0 159 87" fill="none" xmlns="http://www.w3.org/2000/svg">
<path d="M56.59 60.3793C58.4015 60.3793 59.87 58.9108 59.87 57.0993C59.87 55.2878 58.4015 53.8193 56.59 53.8193C54.7785 53.8193 53.31 55.2878 53.31 57.0993C53.31 58.9108 54.7785 60.3793 56.59 60.3793Z" fill="#25A9E0"/>
<path d="M37.14 60.3799H49.66C51.4715 60.3799 52.94 58.9114 52.94 57.0999C52.94 55.2884 51.4715 53.8199 49.66 53.8199H37.14C35.3285 53.8199 33.86 55.2884 33.86 57.0999C33.86 58.9114 35.3285 60.3799 37.14 60.3799Z" fill="#25A9E0"/>
<path d="M33.91 69.1293C35.7215 69.1293 37.19 67.6608 37.19 65.8493C37.19 64.0378 35.7215 62.5693 33.91 62.5693C32.0985 62.5693 30.63 64.0378 30.63 65.8493C30.63 67.6608 32.0985 69.1293 33.91 69.1293Z" fill="#F9E03C"/>
<path d="M14.42 69.1299H26.94C28.7515 69.1299 30.22 67.6614 30.22 65.8499C30.22 64.0384 28.7515 62.5699 26.94 62.5699H14.42C12.6085 62.5699 11.14 64.0384 11.14 65.8499C11.14 67.6614 12.6085 69.1299 14.42 69.1299Z" fill="#F9E03C"/>
<path d="M40.89 69.0795C42.7015 69.0795 44.17 67.611 44.17 65.7995C44.17 63.988 42.7015 62.5195 40.89 62.5195C39.0785 62.5195 37.61 63.988 37.61 65.7995C37.61 67.611 39.0785 69.0795 40.89 69.0795Z" fill="#F9E03C"/>
<path d="M47.86 69.1293C49.6715 69.1293 51.14 67.6608 51.14 65.8493C51.14 64.0378 49.6715 62.5693 47.86 62.5693C46.0485 62.5693 44.58 64.0378 44.58 65.8493C44.58 67.6608 46.0485 69.1293 47.86 69.1293Z" fill="#F9E03C"/>
<path d="M3.53 77.8295C5.34149 77.8295 6.81 76.361 6.81 74.5495C6.81 72.738 5.34149 71.2695 3.53 71.2695C1.71851 71.2695 0.25 72.738 0.25 74.5495C0.25 76.361 1.71851 77.8295 3.53 77.8295Z" fill="#25A9E0"/>
<path d="M38.98 77.8295C40.7915 77.8295 42.26 76.361 42.26 74.5495C42.26 72.738 40.7915 71.2695 38.98 71.2695C37.1685 71.2695 35.7 72.738 35.7 74.5495C35.7 76.361 37.1685 77.8295 38.98 77.8295Z" fill="#F9E03C"/>
<path d="M19.54 77.8301H32.06C33.8715 77.8301 35.34 76.3616 35.34 74.5501C35.34 72.7386 33.8715 71.2701 32.06 71.2701H19.54C17.7285 71.2701 16.26 72.7386 16.26 74.5501C16.26 76.3616 17.7285 77.8301 19.54 77.8301Z" fill="#F9E03C"/>
<path d="M12.63 77.8295C14.4415 77.8295 15.91 76.361 15.91 74.5495C15.91 72.738 14.4415 71.2695 12.63 71.2695C10.8185 71.2695 9.34998 72.738 9.34998 74.5495C9.34998 76.361 10.8185 77.8295 12.63 77.8295Z" fill="#F9E03C"/>
<path d="M47.44 51.6596C49.2515 51.6596 50.72 50.1911 50.72 48.3796C50.72 46.5681 49.2515 45.0996 47.44 45.0996C45.6285 45.0996 44.16 46.5681 44.16 48.3796C44.16 50.1911 45.6285 51.6596 47.44 51.6596Z" fill="#F9E03C"/>
<path d="M66.88 45.0996H54.36C52.5485 45.0996 51.08 46.5681 51.08 48.3796C51.08 50.1911 52.5485 51.6596 54.36 51.6596H66.88C68.6915 51.6596 70.16 50.1911 70.16 48.3796C70.16 46.5681 68.6915 45.0996 66.88 45.0996Z" fill="#F9E03C"/>
<path d="M24.53 51.6801C26.3415 51.6801 27.81 50.2116 27.81 48.4001C27.81 46.5886 26.3415 45.1201 24.53 45.1201C22.7185 45.1201 21.25 46.5886 21.25 48.4001C21.25 50.2116 22.7185 51.6801 24.53 51.6801Z" fill="#25A9E0"/>
<path d="M31.5 51.6401C33.3115 51.6401 34.78 50.1716 34.78 48.3601C34.78 46.5486 33.3115 45.0801 31.5 45.0801C29.6885 45.0801 28.22 46.5486 28.22 48.3601C28.22 50.1716 29.6885 51.6401 31.5 51.6401Z" fill="#25A9E0"/>
<path d="M38.47 51.6801C40.2815 51.6801 41.75 50.2116 41.75 48.4001C41.75 46.5886 40.2815 45.1201 38.47 45.1201C36.6585 45.1201 35.19 46.5886 35.19 48.4001C35.19 50.2116 36.6585 51.6801 38.47 51.6801Z" fill="#25A9E0"/>
<path d="M79.94 55.1C81.1632 53.8315 82.6415 52.837 84.2774 52.1819C85.9132 51.5269 87.6694 51.2263 89.43 51.3C91.2018 51.2325 92.9681 51.5357 94.616 52.19C96.2639 52.8444 97.7571 53.8355 99 55.1C101.35 57.6661 102.659 61.0152 102.674 64.4945C102.689 67.9738 101.408 71.3339 99.08 73.92C96.4747 76.3435 93.0483 77.6908 89.49 77.6908C85.9317 77.6908 82.5053 76.3435 79.9 73.92C77.5905 71.3296 76.3142 67.9804 76.3142 64.51C76.3142 61.0395 77.5905 57.6903 79.9 55.1H79.94ZM89.49 57C88.5332 56.9524 87.5783 57.1271 86.7004 57.5106C85.8225 57.894 85.0453 58.4757 84.43 59.21C83.2065 60.6968 82.5603 62.5751 82.61 64.5C82.5603 66.4157 83.2069 68.2846 84.43 69.76C85.0834 70.4421 85.8681 70.9849 86.7369 71.3557C87.6056 71.7266 88.5404 71.9177 89.485 71.9177C90.4296 71.9177 91.3644 71.7266 92.2331 71.3557C93.1019 70.9849 93.8866 70.4421 94.54 69.76C95.7416 68.2689 96.3885 66.407 96.3702 64.4921C96.352 62.5771 95.6698 60.7279 94.44 59.26C93.8411 58.5316 93.0839 57.9495 92.2262 57.5579C91.3684 57.1663 90.4326 56.9754 89.49 57Z" fill="white"/>
<path d="M124.4 41.2393H130.67V77.1193H124.81L124.4 73.6293C122.66 76.3426 119.94 77.6959 116.24 77.6893C114.519 77.7503 112.803 77.4659 111.194 76.8527C109.584 76.2395 108.114 75.3101 106.87 74.1193C104.417 71.7393 103.193 68.5126 103.2 64.4393C103.2 60.1993 104.39 56.9326 106.77 54.6393C108.018 53.4769 109.485 52.5743 111.085 51.9837C112.685 51.3932 114.386 51.1265 116.09 51.1993C117.732 51.2398 119.348 51.6141 120.84 52.2993C122.329 52.8728 123.582 53.9291 124.4 55.2993V41.2393ZM116.65 57.0493C115.704 57.0185 114.762 57.1799 113.88 57.5237C112.998 57.8674 112.195 58.3864 111.52 59.0493C110.827 59.7536 110.287 60.5929 109.933 61.515C109.578 62.4371 109.417 63.4223 109.46 64.4093C109.424 65.3986 109.59 66.3849 109.948 67.308C110.306 68.2312 110.847 69.072 111.54 69.7793C112.206 70.454 113.003 70.9864 113.881 71.3439C114.76 71.7015 115.702 71.8768 116.65 71.8593C117.612 71.8809 118.568 71.7098 119.463 71.356C120.358 71.0022 121.173 70.4729 121.86 69.7993C123.233 68.3565 123.999 66.441 123.999 64.4493C123.999 62.4575 123.233 60.542 121.86 59.0993C121.171 58.4288 120.356 57.9022 119.461 57.5503C118.567 57.1983 117.611 57.028 116.65 57.0493Z" fill="white"/>
<path d="M157.61 66.7001H137.84C137.932 67.4765 138.186 68.2251 138.583 68.8983C138.981 69.5715 139.515 70.1545 140.15 70.6101C141.69 71.6586 143.529 72.178 145.39 72.0901C146.683 72.0816 147.966 71.8655 149.19 71.4501C150.316 71.1308 151.346 70.5402 152.19 69.7301L156.19 73.7301C154.826 75.105 153.153 76.1337 151.31 76.7301C149.385 77.4205 147.355 77.7756 145.31 77.7801C140.997 77.7801 137.6 76.5567 135.12 74.1101C132.64 71.6634 131.4 68.3867 131.4 64.2801C131.334 62.5228 131.625 60.7704 132.256 59.1289C132.887 57.4874 133.844 55.9909 135.07 54.7301C136.361 53.4778 137.895 52.5034 139.577 51.867C141.259 51.2307 143.054 50.9458 144.85 51.0301C149.19 51.0301 152.523 52.3634 154.85 55.0301C157.177 57.6967 158.097 61.5867 157.61 66.7001ZM138 61.5201H151.6C151.546 60.8015 151.34 60.1026 150.995 59.4699C150.65 58.8371 150.175 58.285 149.6 57.8501C148.244 56.9427 146.629 56.5006 145 56.5901C143.401 56.5488 141.827 56.9877 140.48 57.8501C139.23 58.7263 138.347 60.0331 138 61.5201Z" fill="white"/>
<path d="M26.92 13.6698L23.43 17.7698C21.718 16.2288 19.4715 15.4178 17.17 15.5098C14.09 15.5098 12.55 16.3498 12.55 18.0298C12.55 19.6698 14.12 20.5998 17.27 20.7998C18.4 20.8698 19.4 20.9698 20.27 21.1098C21.2406 21.2734 22.1945 21.5245 23.12 21.8598C24.0519 22.1633 24.9222 22.6306 25.69 23.2398C26.4207 23.8671 27.0074 24.6448 27.41 25.5198C27.8918 26.5836 28.1277 27.7423 28.1 28.9098C28.1129 30.0508 27.8625 31.1795 27.3682 32.2079C26.8739 33.2364 26.149 34.1371 25.25 34.8398C23.35 36.4398 20.68 37.2298 17.25 37.2298C15.1082 37.2555 12.9756 36.9451 10.93 36.3098C8.86541 35.5697 7.01444 34.3334 5.53998 32.7098L8.61998 28.2498C9.71345 29.3637 11.0525 30.2062 12.53 30.7098C14.0611 31.3488 15.6925 31.7144 17.35 31.7898C18.4651 31.8506 19.5729 31.5754 20.53 30.9998C20.9324 30.7852 21.2704 30.4674 21.5094 30.079C21.7484 29.6907 21.8797 29.2457 21.89 28.7898C21.9075 28.3949 21.8076 28.0037 21.6029 27.6655C21.3983 27.3273 21.098 27.0574 20.74 26.8898C19.5103 26.3789 18.1915 26.1172 16.86 26.1198C15.6117 26.0318 14.3737 25.8344 13.16 25.5298C12.0116 25.2303 10.9011 24.8009 9.84998 24.2498C8.79715 23.7054 7.9174 22.8776 7.30998 21.8598C6.677 20.7677 6.35859 19.5217 6.38998 18.2598C6.36131 16.9592 6.70853 15.678 7.38998 14.5698C8.02614 13.5224 8.92614 12.6603 9.99998 12.0698C11.0753 11.4901 12.2216 11.053 13.41 10.7698C14.6015 10.479 15.8235 10.3313 17.05 10.3298C20.642 10.1691 24.1637 11.3609 26.92 13.6698Z" fill="white"/>
<path d="M48.59 14.5393L48.79 11.0493H54.79V36.3593H48.9L48.59 32.6593C47.8374 34.0931 46.6263 35.2338 45.15 35.8993C43.6637 36.6483 42.0333 37.0678 40.37 37.1293C38.6552 37.2098 36.9417 36.9441 35.3318 36.3479C33.722 35.7517 32.2487 34.8373 31 33.6593C28.5867 31.3193 27.38 27.9859 27.38 23.6593C27.38 19.4459 28.62 16.1759 31.1 13.8493C32.3758 12.6798 33.87 11.7739 35.4968 11.1836C37.1237 10.5932 38.8512 10.3301 40.58 10.4093C42.2376 10.3985 43.8734 10.7861 45.35 11.5393C46.6967 12.2058 47.822 13.2477 48.59 14.5393ZM41.09 15.9993C40.0805 15.9534 39.0726 16.1211 38.1324 16.4916C37.1922 16.862 36.3407 17.4267 35.6337 18.1488C34.9267 18.8709 34.3801 19.7341 34.0297 20.6819C33.6792 21.6298 33.5328 22.6409 33.6 23.6493C33.5483 24.6823 33.7109 25.7148 34.0774 26.6819C34.444 27.6491 35.0066 28.53 35.73 29.2693C36.4391 29.9565 37.2788 30.4946 38.1994 30.8519C39.12 31.2091 40.1029 31.3783 41.09 31.3493C42.8125 31.404 44.4976 30.8399 45.84 29.7593C47.0429 28.8211 47.8782 27.4904 48.2 25.9993C48.4901 24.5167 48.4901 22.9919 48.2 21.5093C47.8987 19.9851 47.0615 18.6193 45.84 17.6593C44.5074 16.5535 42.8213 15.9642 41.09 15.9993Z" fill="white"/>
<path d="M81.59 36.3595H75.33V23.1095C75.4027 21.3448 74.8384 19.6127 73.74 18.2295C73.18 17.5914 72.4818 17.0894 71.6985 16.7619C70.9152 16.4344 70.0675 16.2899 69.22 16.3395C68.3468 16.3092 67.4778 16.4728 66.6755 16.8187C65.8731 17.1645 65.1575 17.6839 64.58 18.3395C63.3623 19.7164 62.7087 21.5019 62.75 23.3395V36.3595H56.54V10.9995H62.14L62.55 14.4395C63.6134 13.2834 64.8973 12.3516 66.3261 11.699C67.7549 11.0464 69.2999 10.6862 70.87 10.6395C72.3153 10.6119 73.7495 10.898 75.0736 11.478C76.3977 12.0581 77.5804 12.9184 78.54 13.9995C80.58 16.2062 81.58 19.2429 81.54 23.1095L81.59 36.3595Z" fill="white"/>
<path d="M83.6 0.469727H89.86V14.4697C90.6758 13.0942 91.9345 12.0365 93.43 11.4697C94.9198 10.776 96.537 10.3981 98.18 10.3597C99.8838 10.2881 101.585 10.5553 103.185 11.1458C104.785 11.7363 106.251 12.6383 107.5 13.7997C109.873 16.0864 111.06 19.3564 111.06 23.6097C111.06 27.6764 109.837 30.8997 107.39 33.2797C106.15 34.4865 104.679 35.4309 103.066 36.0563C101.452 36.6817 99.7295 36.9754 98 36.9197C94.3133 36.9197 91.5933 35.5697 89.84 32.8697L89.43 36.3597H83.6V0.469727ZM97.6 16.2897C96.6423 16.2734 95.6911 16.4481 94.8017 16.8035C93.9123 17.1589 93.1026 17.6879 92.42 18.3597C91.7079 19.0461 91.1477 19.8742 90.7756 20.7906C90.4035 21.707 90.2279 22.6912 90.26 23.6797C90.2199 24.659 90.3815 25.6361 90.7349 26.5502C91.0882 27.4644 91.6258 28.2962 92.3141 28.9939C93.0024 29.6916 93.8268 30.2404 94.7361 30.6061C95.6455 30.9717 96.6202 31.1466 97.6 31.1197C98.5532 31.137 99.4999 30.9577 100.381 30.5929C101.262 30.2282 102.058 29.6858 102.72 28.9997C103.415 28.2961 103.958 27.4573 104.316 26.5354C104.673 25.6134 104.838 24.6279 104.8 23.6397C104.843 22.6521 104.683 21.6661 104.331 20.7426C103.978 19.819 103.44 18.9774 102.75 18.2697C102.072 17.6093 101.266 17.0932 100.383 16.7529C99.4994 16.4126 98.5561 16.255 97.61 16.2897H97.6Z" fill="white"/>
<path d="M137.4 25.9398H117.64C117.727 26.7164 117.978 27.4656 118.376 28.1379C118.774 28.8102 119.311 29.3903 119.95 29.8398C121.485 30.8918 123.321 31.4149 125.18 31.3298C126.473 31.3178 127.756 31.0984 128.98 30.6798C130.111 30.381 131.15 29.8034 132 28.9998L136 32.9998C134.638 34.3725 132.969 35.4009 131.13 35.9998C129.204 36.6882 127.175 37.0432 125.13 37.0498C120.817 37.0498 117.42 35.8265 114.94 33.3798C112.46 30.9332 111.22 27.6565 111.22 23.5498C111.147 21.7961 111.431 20.0458 112.053 18.4045C112.675 16.7632 113.623 15.2648 114.84 13.9998C116.132 12.7494 117.666 11.7768 119.348 11.1422C121.03 10.5075 122.824 10.2243 124.62 10.3098C128.96 10.3098 132.293 11.6432 134.62 14.3098C136.947 16.9765 137.873 20.8532 137.4 25.9398ZM117.74 20.7498H131.39C131.336 20.0313 131.13 19.3324 130.785 18.6996C130.44 18.0669 129.965 17.5147 129.39 17.0798C128.056 16.1891 126.472 15.7477 124.87 15.8198C123.275 15.7806 121.704 16.2194 120.36 17.0798C119.055 17.9288 118.119 19.2398 117.74 20.7498Z" fill="white"/>
<path d="M138.84 11.0501H144.64L145.1 14.0001C145.799 12.7434 146.877 11.7391 148.18 11.1301C149.473 10.6264 150.853 10.3817 152.24 10.4101C153.433 10.3515 154.626 10.5348 155.746 10.949C156.867 11.3631 157.892 11.9996 158.76 12.8201L155.93 18.2601C154.672 17.1828 153.066 16.5999 151.41 16.6201C149.763 16.5611 148.154 17.1213 146.9 18.1901C146.268 18.8123 145.779 19.5652 145.468 20.396C145.157 21.2269 145.032 22.1156 145.1 23.0001V36.3601H138.84V11.0501Z" fill="white"/>
<path d="M78.132 38.6458L35.5995 81.1782C34.7482 82.0296 34.7482 83.4099 35.5995 84.2612L36.8016 85.4633C37.653 86.3146 39.0333 86.3146 39.8846 85.4633L82.4171 42.9308C83.2684 42.0795 83.2684 40.6992 82.4171 39.8478L81.215 38.6458C80.3637 37.7944 78.9834 37.7944 78.132 38.6458Z" fill="#25A9E0"/>
<path d="M76.22 54.8397C75.2435 53.8664 74.1197 53.0531 72.89 52.4297C72.89 52.4897 72.8 52.5497 72.75 52.5997L68.25 57.0997C69.7479 57.3036 71.1456 57.9675 72.25 58.9997L76.22 54.8397Z" fill="white"/>
<path d="M72.63 69.7801C71.8998 70.4917 71.0314 71.0461 70.0786 71.409C69.1257 71.7719 68.1086 71.9356 67.09 71.8901C66.1436 71.9125 65.2022 71.7473 64.32 71.4041C63.4378 71.0608 62.6323 70.5462 61.95 69.8901C60.7349 68.6748 60.021 67.0471 59.95 65.3301L55.32 70.0001C55.1388 70.1766 54.9374 70.331 54.72 70.4601C55.3266 71.9621 56.263 73.3086 57.46 74.4001C60.108 76.7449 63.5552 77.9834 67.09 77.8601C68.9014 77.8893 70.6999 77.5497 72.376 76.8621C74.0522 76.1744 75.5709 75.1531 76.84 73.8601L72.63 69.7801Z" fill="white"/>
</svg>
